<?xml version="1.0" encoding="utf-8"?>
<!-- Generator: Adobe Illustrator 27.0.0, SVG Export Plug-In . SVG Version: 6.00 Build 0)  -->
<svg version="1.1" id="图层_1" xmlns="http://www.w3.org/2000/svg" xmlns:xlink="http://www.w3.org/1999/xlink" x="0px" y="0px"
	 viewBox="0 0 48 48" style="enable-background:new 0 0 48 48;" xml:space="preserve">
<style type="text/css">
	.st0{fill:none;stroke:#000000;stroke-miterlimit:10;}
</style>
<path class="st0" d="M8.7,9.3l1.8,3.7h3.2l-1.8-3.7H14l1.8,3.7h3.2l-1.8-3.7h2.2l1.8,3.7h3.2l-1.8-3.7h2.7c0.4,0,0.7,0.1,1,0.4
	c0.3,0.3,0.4,0.6,0.4,1v12.7c0,0.4-0.1,0.7-0.4,1c-0.3,0.3-0.6,0.4-1,0.4H8.7c-0.4,0-0.7-0.1-1-0.4c-0.3-0.3-0.4-0.6-0.4-1V10.8
	c0-0.4,0.1-0.7,0.4-1C7.9,9.5,8.3,9.3,8.7,9.3z M8.7,14.5v9h16.5v-9H8.7z M8.7,14.5v9V14.5z"/>
<path class="st0" d="M45.1,48L27.5,30.5c-1.3,1.2-2.9,2.1-4.7,2.7c-1.8,0.6-3.7,1-5.7,1c-4.8,0-8.9-1.7-12.2-5
	c-3.3-3.3-5-7.4-5-12.1S1.7,8.3,5,5s7.4-5,12.1-5c4.7,0,8.7,1.7,12,5s5,7.4,5,12.1c0,1.9-0.3,3.8-0.9,5.5c-0.6,1.8-1.6,3.4-2.8,5
	L48,45.1L45.1,48z M17.1,30.1c3.6,0,6.7-1.3,9.2-3.8s3.8-5.6,3.8-9.2s-1.3-6.7-3.8-9.2S20.7,4,17.1,4c-3.6,0-6.7,1.3-9.3,3.8
	S4,13.5,4,17.1s1.3,6.7,3.8,9.2C10.4,28.9,13.5,30.1,17.1,30.1z"/>
</svg>
