<?xml version="1.0" encoding="utf-8"?>
<!-- Generator: Adobe Illustrator 27.0.0, SVG Export Plug-In . SVG Version: 6.00 Build 0)  -->
<svg version="1.1" id="图层_1" xmlns="http://www.w3.org/2000/svg" xmlns:xlink="http://www.w3.org/1999/xlink" x="0px" y="0px"
	 viewBox="0 0 48 48" style="enable-background:new 0 0 48 48;" xml:space="preserve">
<style type="text/css">
	.st0{fill:#40BF3B;}
</style>
<path class="st0" d="M7,8l3.7,7.6h6.5L13.5,8H18l3.7,7.6h6.5L24.5,8h4.5l3.7,7.6h6.5L35.4,8H41c0.8,0,1.5,0.3,2.1,0.9
	C43.7,9.5,44,10.2,44,11v26c0,0.8-0.3,1.5-0.9,2.1C42.5,39.7,41.8,40,41,40H7c-0.8,0-1.5-0.3-2.1-0.9C4.3,38.5,4,37.8,4,37V11
	c0-0.8,0.3-1.5,0.9-2.1C5.5,8.3,6.2,8,7,8z M7,18.6V37h34V18.6H7z M7,18.6V37V18.6z"/>
<path class="st0" d="M31.7,34.6l-5-5c-0.4,0.3-0.8,0.6-1.3,0.8s-1,0.3-1.6,0.3c-1.4,0-2.5-0.5-3.5-1.4S19,27.2,19,25.8
	s0.5-2.5,1.4-3.4s2.1-1.4,3.4-1.4c1.3,0,2.5,0.5,3.4,1.4c0.9,0.9,1.4,2.1,1.4,3.4c0,0.5-0.1,1.1-0.3,1.6s-0.4,1-0.8,1.4l5,4.9
	L31.7,34.6z M23.8,29.5c1,0,1.9-0.4,2.6-1.1c0.7-0.7,1.1-1.6,1.1-2.6s-0.4-1.9-1.1-2.6c-0.7-0.7-1.6-1.1-2.6-1.1
	c-1,0-1.9,0.4-2.6,1.1s-1.1,1.6-1.1,2.6s0.4,1.9,1.1,2.6S22.8,29.5,23.8,29.5z"/>
</svg>
